<svg width="48" height="48" viewBox="0 0 48 48" fill="none" xmlns="http://www.w3.org/2000/svg">
<path d="M34.3341 32.3101C33.3964 31.3727 32.1249 30.8461 30.7991 30.8461C29.4733 30.8461 28.2017 31.3727 27.2641 32.3101L26.4941 33.0781C22.3032 29.5652 18.429 25.691 14.9161 21.5001L15.6861 20.7301C16.1505 20.2658 16.5189 19.7145 16.7703 19.1078C17.0216 18.5011 17.151 17.8508 17.151 17.1941C17.151 16.5374 17.0216 15.8871 16.7703 15.2804C16.5189 14.6736 16.1505 14.1224 15.6861 13.6581L11.4421 9.41608C10.5044 8.47873 9.2329 7.95215 7.90708 7.95215C6.58126 7.95215 5.30972 8.47873 4.37208 9.41608L2.04408 11.7441C0.90981 12.887 0.202947 14.3852 0.0420006 15.9874C-0.118946 17.5895 0.275808 19.1984 1.16008 20.5441C8.08105 30.9721 17.0176 39.9107 27.4441 46.8341C28.7936 47.7068 30.3999 48.0947 31.999 47.9341C33.5981 47.7734 35.0951 47.0738 36.2441 45.9501L38.5741 43.6221C39.5114 42.6844 40.038 41.4129 40.038 40.0871C40.038 38.7613 39.5114 37.4897 38.5741 36.5521L34.3341 32.3101Z" fill="#CF1B1B"/>
<path d="M23 0C22.4696 0 21.9609 0.210714 21.5858 0.585786C21.2107 0.960859 21 1.46957 21 2C21 2.53043 21.2107 3.03914 21.5858 3.41421C21.9609 3.78929 22.4696 4 23 4C28.5676 4.00635 33.9053 6.22089 37.8422 10.1578C41.7791 14.0947 43.9936 19.4324 44 25C44 25.5304 44.2107 26.0391 44.5858 26.4142C44.9609 26.7893 45.4696 27 46 27C46.5304 27 47.0391 26.7893 47.4142 26.4142C47.7893 26.0391 48 25.5304 48 25C47.9921 18.372 45.3556 12.0178 40.6689 7.3311C35.9822 2.64441 29.628 0.00793929 23 0V0Z" fill="#CF1B1B"/>
<path d="M23 12C26.4465 12.0042 29.7507 13.3752 32.1877 15.8123C34.6248 18.2493 35.9958 21.5535 36 25C36 25.5304 36.2107 26.0391 36.5858 26.4142C36.9609 26.7893 37.4696 27 38 27C38.5304 27 39.0391 26.7893 39.4142 26.4142C39.7893 26.0391 40 25.5304 40 25C39.9947 20.4929 38.2019 16.172 35.015 12.985C31.828 9.79806 27.5071 8.00529 23 8C22.4696 8 21.9609 8.21071 21.5858 8.58579C21.2107 8.96086 21 9.46957 21 10C21 10.5304 21.2107 11.0391 21.5858 11.4142C21.9609 11.7893 22.4696 12 23 12Z" fill="#CF1B1B"/>
<path d="M23 20C24.3261 20 25.5979 20.5268 26.5355 21.4645C27.4732 22.4021 28 23.6739 28 25C28 25.5304 28.2107 26.0391 28.5858 26.4142C28.9609 26.7893 29.4696 27 30 27C30.5304 27 31.0391 26.7893 31.4142 26.4142C31.7893 26.0391 32 25.5304 32 25C31.9974 22.6139 31.0483 20.3262 29.361 18.639C27.6738 16.9517 25.3861 16.0026 23 16C22.4696 16 21.9609 16.2107 21.5858 16.5858C21.2107 16.9609 21 17.4696 21 18C21 18.5304 21.2107 19.0391 21.5858 19.4142C21.9609 19.7893 22.4696 20 23 20Z" fill="#CF1B1B"/>
</svg>
