<svg width="64" height="64" viewBox="0 0 64 64" fill="none" xmlns="http://www.w3.org/2000/svg">
<path d="M45.3333 29.3333V8H18.6667V18.6667H8V56H29.3333V45.3333H34.6667V56H56V29.3333H45.3333ZM18.6667 50.6667H13.3333V45.3333H18.6667V50.6667ZM18.6667 40H13.3333V34.6667H18.6667V40ZM18.6667 29.3333H13.3333V24H18.6667V29.3333ZM29.3333 40H24V34.6667H29.3333V40ZM29.3333 29.3333H24V24H29.3333V29.3333ZM29.3333 18.6667H24V13.3333H29.3333V18.6667ZM40 40H34.6667V34.6667H40V40ZM40 29.3333H34.6667V24H40V29.3333ZM40 18.6667H34.6667V13.3333H40V18.6667ZM50.6667 50.6667H45.3333V45.3333H50.6667V50.6667ZM50.6667 40H45.3333V34.6667H50.6667V40Z" fill="#CF1B1B"/>
</svg>
