<svg width="48" height="48" viewBox="0 0 48 48" fill="none" xmlns="http://www.w3.org/2000/svg">
<path d="M24 48C37.2548 48 48 37.2548 48 24C48 10.7452 37.2548 0 24 0C10.7452 0 0 10.7452 0 24C0 37.2548 10.7452 48 24 48Z" fill="#1CB7EB"/>
<path d="M36.7999 15.4C35.8999 15.9 34.7999 16.2 33.7999 16.3C34.8999 15.6 35.6999 14.5 36.0999 13.2C35.0999 13.8 33.9999 14.3 32.6999 14.6C31.6999 13.5 30.3999 12.8 28.8999 12.8C25.9999 12.8 23.5999 15.3 23.5999 18.5C23.5999 18.9 23.5999 19.4 23.6999 19.8C19.2999 19.6 15.3999 17.3 12.7999 13.9C12.2999 14.7 12.0999 15.7 12.0999 16.8C12.0999 18.8 12.9999 20.5001 14.3999 21.5001C13.4999 21.5001 12.6999 21.2 11.9999 20.8V20.9C11.9999 23.6 13.7999 25.9001 16.1999 26.5001C15.7999 26.6001 15.2999 26.7001 14.7999 26.7001C14.4999 26.7001 14.0999 26.7001 13.7999 26.6001C14.4999 28.9001 16.3999 30.5001 18.6999 30.5001C16.8999 32.0001 14.5999 32.9001 12.1999 32.9001C11.7999 32.9001 11.3999 32.9001 10.8999 32.8001C13.1999 34.4001 15.9999 35.4001 18.9999 35.4001C28.6999 35.4001 33.9999 26.8001 33.9999 19.3C33.9999 19.1 33.9999 18.8 33.9999 18.6C35.1999 17.6 36.0999 16.6 36.7999 15.4Z" fill="white"/>
</svg>
